<svg width="16" height="16" viewBox="0 0 16 16" fill="none" xmlns="http://www.w3.org/2000/svg">
<path d="M14.4615 15H1.53846C1.53846 15 1 15 1 13.3846C1 11.7692 1.53846 11.7692 1.53846 11.7692L6.38462 9.07692C6.38462 9.07692 5.63482 8.14552 5.30769 7.46154C5.02079 6.86165 4.76923 5.84615 4.76923 5.84615C4.76923 5.84615 4.14326 3.71084 4.76923 2.61538C5.46909 1.39063 5.84615 1 8 1C10.1538 1 10.6923 1.53846 11.2308 2.61538C11.7692 3.69231 11.5045 4.6145 11.2308 5.84615C10.9248 7.22318 9.61539 9.07692 9.61539 9.07692L14.4615 11.7692C14.4615 11.7692 15 11.7692 15 13.3846C15 15 14.4615 15 14.4615 15Z" stroke="#C4C4C4"/>
</svg>
